<?xml version="1.0" ?><svg id="Layer_1" style="enable-background:new 0 0 200 200;" version="1.1" viewBox="0 0 200 200" xml:space="preserve" xmlns="http://www.w3.org/2000/svg" xmlns:xlink="http://www.w3.org/1999/xlink"><style type="text/css">
	.st0{fill:rgb(0, 116, 58);}
	.st1{opacity:0.3;}
	.st2{fill:#EBFFDC;}
</style><rect class="st0" height="180" width="180" x="10" y="10"/><polygon class="st1" points="190,83.869 190,190 83.5,190 45,151.63 45,48.37 136.5,48.37 146,57.87 146,48.869 155,48.869 "/><g><polygon class="st2" points="63,102.349 63,111.349 90.615,111.349 90.615,66.369 63,66.369 63,93.349 72,93.349 72,75.369    81.615,75.369 81.615,102.349  "/><rect class="st2" height="9" width="50.826" x="63.5" y="120.369"/><rect class="st2" height="9" width="36.5" x="100" y="102.369"/><rect class="st2" height="9" width="36.5" x="100" y="84.369"/><rect class="st2" height="9" width="36.5" x="100" y="66.369"/><path class="st2" d="M146,48.868v71.501h-22.311v22.262H54V57.369h82.5v-9H45v103.262h85.051L155,126.736V48.868H146z    M139.619,129.369l-6.93,6.915v-6.915H139.619z"/></g></svg>
